<svg width="800" height="500" xmlns="http://www.w3.org/2000/svg">
  <!-- Background -->
  <rect width="800" height="500" fill="#1E1E2E" rx="5" ry="5"/>
  
  <!-- Header -->
  <rect width="800" height="40" fill="#252538" rx="5" ry="5"/>
  <text x="20" y="25" font-family="Arial" font-size="16" fill="#4CAF50" font-weight="bold">BTC/USD</text>
  <text x="120" y="25" font-family="Arial" font-size="16" fill="#FFFFFF">$42,156.78</text>
  <text x="240" y="25" font-family="Arial" font-size="14" fill="#4CAF50">+$1,245.36 (+3.04%)</text>
  
  <!-- Timeframe selector -->
  <rect x="500" y="10" width="280" height="25" fill="#1A1A2A" rx="3" ry="3"/>
  <text x="510" y="27" font-family="Arial" font-size="12" fill="#AAAAAA">1m</text>
  <text x="540" y="27" font-family="Arial" font-size="12" fill="#AAAAAA">5m</text>
  <text x="570" y="27" font-family="Arial" font-size="12" fill="#AAAAAA">15m</text>
  <text x="600" y="27" font-family="Arial" font-size="12" fill="#AAAAAA">1h</text>
  <text x="630" y="27" font-family="Arial" font-size="12" fill="#AAAAAA">4h</text>
  <text x="660" y="27" font-family="Arial" font-size="12" fill="#FFFFFF" font-weight="bold">1d</text>
  <text x="690" y="27" font-family="Arial" font-size="12" fill="#AAAAAA">1w</text>
  <text x="720" y="27" font-family="Arial" font-size="12" fill="#AAAAAA">1M</text>
  
  <!-- Main chart area -->
  <rect x="20" y="50" width="570" height="430" fill="#252538" rx="5" ry="5"/>
  
  <!-- Candlestick chart -->
  <!-- Each candle has: body, wick, color based on up/down -->
  <!-- Bullish candle -->
  <line x1="50" y1="100" x2="50" y2="150" stroke="#333" stroke-width="1" />
  <rect x="45" y="110" width="10" height="40" fill="#4CAF50" />
  
  <line x1="70" y1="105" x2="70" y2="155" stroke="#333" stroke-width="1" />
  <rect x="65" y="115" width="10" height="40" fill="#4CAF50" />
  
  <line x1="90" y1="95" x2="90" y2="140" stroke="#333" stroke-width="1" />
  <rect x="85" y="95" width="10" height="45" fill="#4CAF50" />
  
  <!-- Bearish candle -->
  <line x1="110" y1="90" x2="110" y2="140" stroke="#333" stroke-width="1" />
  <rect x="105" y="100" width="10" height="40" fill="#E57373" />
  
  <line x1="130" y1="110" x2="130" y2="170" stroke="#333" stroke-width="1" />
  <rect x="125" y="120" width="10" height="50" fill="#E57373" />
  
  <!-- More candlesticks -->
  <line x1="150" y1="130" x2="150" y2="180" stroke="#333" stroke-width="1" />
  <rect x="145" y="130" width="10" height="50" fill="#4CAF50" />
  
  <line x1="170" y1="120" x2="170" y2="170" stroke="#333" stroke-width="1" />
  <rect x="165" y="120" width="10" height="50" fill="#4CAF50" />
  
  <line x1="190" y1="115" x2="190" y2="165" stroke="#333" stroke-width="1" />
  <rect x="185" y="120" width="10" height="45" fill="#E57373" />
  
  <line x1="210" y1="125" x2="210" y2="175" stroke="#333" stroke-width="1" />
  <rect x="205" y="140" width="10" height="35" fill="#E57373" />
  
  <line x1="230" y1="130" x2="230" y2="190" stroke="#333" stroke-width="1" />
  <rect x="225" y="150" width="10" height="40" fill="#E57373" />
  
  <line x1="250" y1="160" x2="250" y2="200" stroke="#333" stroke-width="1" />
  <rect x="245" y="160" width="10" height="40" fill="#4CAF50" />
  
  <line x1="270" y1="150" x2="270" y2="200" stroke="#333" stroke-width="1" />
  <rect x="265" y="150" width="10" height="50" fill="#4CAF50" />
  
  <line x1="290" y1="140" x2="290" y2="190" stroke="#333" stroke-width="1" />
  <rect x="285" y="140" width="10" height="50" fill="#4CAF50" />
  
  <line x1="310" y1="145" x2="310" y2="195" stroke="#333" stroke-width="1" />
  <rect x="305" y="160" width="10" height="35" fill="#E57373" />
  
  <line x1="330" y1="155" x2="330" y2="215" stroke="#333" stroke-width="1" />
  <rect x="325" y="175" width="10" height="40" fill="#E57373" />
  
  <line x1="350" y1="165" x2="350" y2="220" stroke="#333" stroke-width="1" />
  <rect x="345" y="165" width="10" height="55" fill="#4CAF50" />
  
  <line x1="370" y1="155" x2="370" y2="205" stroke="#333" stroke-width="1" />
  <rect x="365" y="155" width="10" height="50" fill="#4CAF50" />
  
  <line x1="390" y1="145" x2="390" y2="195" stroke="#333" stroke-width="1" />
  <rect x="385" y="145" width="10" height="50" fill="#4CAF50" />
  
  <line x1="410" y1="135" x2="410" y2="185" stroke="#333" stroke-width="1" />
  <rect x="405" y="135" width="10" height="50" fill="#4CAF50" />
  
  <line x1="430" y1="125" x2="430" y2="165" stroke="#333" stroke-width="1" />
  <rect x="425" y="125" width="10" height="40" fill="#4CAF50" />
  
  <line x1="450" y1="120" x2="450" y2="160" stroke="#333" stroke-width="1" />
  <rect x="445" y="120" width="10" height="40" fill="#4CAF50" />
  
  <line x1="470" y1="110" x2="470" y2="160" stroke="#333" stroke-width="1" />
  <rect x="465" y="110" width="10" height="50" fill="#4CAF50" />
  
  <line x1="490" y1="105" x2="490" y2="145" stroke="#333" stroke-width="1" />
  <rect x="485" y="105" width="10" height="40" fill="#4CAF50" />
  
  <line x1="510" y1="95" x2="510" y2="140" stroke="#333" stroke-width="1" />
  <rect x="505" y="95" width="10" height="45" fill="#4CAF50" />
  
  <line x1="530" y1="100" x2="530" y2="150" stroke="#333" stroke-width="1" />
  <rect x="525" y="110" width="10" height="40" fill="#E57373" />
  
  <line x1="550" y1="110" x2="550" y2="160" stroke="#333" stroke-width="1" />
  <rect x="545" y="120" width="10" height="40" fill="#E57373" />
  
  <!-- Technical indicators -->
  <!-- Moving averages -->
  <polyline points="30,165 50,160 70,155 90,150 110,145 130,150 150,155 170,155 190,150 210,155 230,160 250,165 270,160 290,155 310,160 330,170 350,175 370,170 390,165 410,160 430,155 450,150 470,140 490,135 510,130 530,135 550,140" stroke="#FFEB3B" stroke-width="2" fill="none" />
  <polyline points="30,180 50,175 70,170 90,165 110,160 130,160 150,165 170,170 190,175 210,180 230,185 250,185 270,180 290,175 310,180 330,185 350,190 370,185 390,180 410,175 430,170 450,165 470,160 490,155 510,150 530,155 550,160" stroke="#2196F3" stroke-width="2" fill="none" />
  
  <!-- Volume bars -->
  <rect x="45" y="420" width="10" height="20" fill="#4CAF50" opacity="0.5" />
  <rect x="65" y="420" width="10" height="15" fill="#4CAF50" opacity="0.5" />
  <rect x="85" y="420" width="10" height="30" fill="#4CAF50" opacity="0.5" />
  <rect x="105" y="420" width="10" height="25" fill="#E57373" opacity="0.5" />
  <rect x="125" y="420" width="10" height="35" fill="#E57373" opacity="0.5" />
  <rect x="145" y="420" width="10" height="20" fill="#4CAF50" opacity="0.5" />
  <rect x="165" y="420" width="10" height="15" fill="#4CAF50" opacity="0.5" />
  <rect x="185" y="420" width="10" height="10" fill="#E57373" opacity="0.5" />
  <rect x="205" y="420" width="10" height="15" fill="#E57373" opacity="0.5" />
  <rect x="225" y="420" width="10" height="20" fill="#E57373" opacity="0.5" />
  <rect x="245" y="420" width="10" height="15" fill="#4CAF50" opacity="0.5" />
  <rect x="265" y="420" width="10" height="25" fill="#4CAF50" opacity="0.5" />
  <rect x="285" y="420" width="10" height="30" fill="#4CAF50" opacity="0.5" />
  <rect x="305" y="420" width="10" height="10" fill="#E57373" opacity="0.5" />
  <rect x="325" y="420" width="10" height="15" fill="#E57373" opacity="0.5" />
  <rect x="345" y="420" width="10" height="35" fill="#4CAF50" opacity="0.5" />
  <rect x="365" y="420" width="10" height="25" fill="#4CAF50" opacity="0.5" />
  <rect x="385" y="420" width="10" height="20" fill="#4CAF50" opacity="0.5" />
  <rect x="405" y="420" width="10" height="30" fill="#4CAF50" opacity="0.5" />
  <rect x="425" y="420" width="10" height="15" fill="#4CAF50" opacity="0.5" />
  <rect x="445" y="420" width="10" height="20" fill="#4CAF50" opacity="0.5" />
  <rect x="465" y="420" width="10" height="40" fill="#4CAF50" opacity="0.5" />
  <rect x="485" y="420" width="10" height="25" fill="#4CAF50" opacity="0.5" />
  <rect x="505" y="420" width="10" height="35" fill="#4CAF50" opacity="0.5" />
  <rect x="525" y="420" width="10" height="15" fill="#E57373" opacity="0.5" />
  <rect x="545" y="420" width="10" height="10" fill="#E57373" opacity="0.5" />
  
  <!-- Right sidebar - indicators and tools -->
  <rect x="610" y="50" width="170" height="430" fill="#252538" rx="5" ry="5"/>
  
  <!-- Indicators section -->
  <text x="625" y="70" font-family="Arial" font-size="14" fill="#FFFFFF" font-weight="bold">Indicators</text>
  <rect x="625" y="80" width="140" height="25" fill="#1A1A2A" rx="3" ry="3"/>
  <text x="635" y="97" font-family="Arial" font-size="12" fill="#FFEB3B">MA (20)</text>
  <text x="695" y="97" font-family="Arial" font-size="12" fill="#AAAAAA">42,135.25</text>
  
  <rect x="625" y="110" width="140" height="25" fill="#1A1A2A" rx="3" ry="3"/>
  <text x="635" y="127" font-family="Arial" font-size="12" fill="#2196F3">MA (50)</text>
  <text x="695" y="127" font-family="Arial" font-size="12" fill="#AAAAAA">41,876.50</text>
  
  <rect x="625" y="140" width="140" height="25" fill="#1A1A2A" rx="3" ry="3"/>
  <text x="635" y="157" font-family="Arial" font-size="12" fill="#FFFFFF">RSI (14)</text>
  <text x="695" y="157" font-family="Arial" font-size="12" fill="#4CAF50">64.5</text>
  
  <rect x="625" y="170" width="140" height="25" fill="#1A1A2A" rx="3" ry="3"/>
  <text x="635" y="187" font-family="Arial" font-size="12" fill="#FFFFFF">MACD</text>
  <text x="695" y="187" font-family="Arial" font-size="12" fill="#4CAF50">+125.30</text>
  
  <rect x="625" y="200" width="140" height="25" fill="#1A1A2A" rx="3" ry="3"/>
  <text x="635" y="217" font-family="Arial" font-size="12" fill="#FFFFFF">BB (20,2)</text>
  <text x="695" y="217" font-family="Arial" font-size="12" fill="#AAAAAA">±5.2%</text>
  
  <!-- Tools section -->
  <text x="625" y="250" font-family="Arial" font-size="14" fill="#FFFFFF" font-weight="bold">Drawing Tools</text>
  
  <rect x="625" y="260" width="30" height="30" fill="#1A1A2A" rx="3" ry="3"/>
  <line x1="630" y1="275" x2="650" y2="275" stroke="#FFFFFF" stroke-width="2" />
  
  <rect x="660" y="260" width="30" height="30" fill="#1A1A2A" rx="3" ry="3"/>
  <rect x="665" y="270" width="20" height="10" fill="none" stroke="#FFFFFF" stroke-width="2" />
  
  <rect x="695" y="260" width="30" height="30" fill="#1A1A2A" rx="3" ry="3"/>
  <line x1="700" y1="280" x2="720" y2="265" stroke="#FFFFFF" stroke-width="2" />
  
  <rect x="625" y="295" width="30" height="30" fill="#1A1A2A" rx="3" ry="3"/>
  <circle cx="640" cy="310" r="8" stroke="#FFFFFF" stroke-width="2" fill="none" />
  
  <rect x="660" y="295" width="30" height="30" fill="#1A1A2A" rx="3" ry="3"/>
  <text x="667" y="316" font-family="Arial" font-size="14" fill="#FFFFFF" font-weight="bold">F</text>
  
  <rect x="695" y="295" width="30" height="30" fill="#1A1A2A" rx="3" ry="3"/>
  <text x="701" y="316" font-family="Arial" font-size="14" fill="#FFFFFF" font-weight="bold">%</text>
  
  <!-- Order panel -->
  <text x="625" y="350" font-family="Arial" font-size="14" fill="#FFFFFF" font-weight="bold">Quick Order</text>
  
  <rect x="625" y="360" width="140" height="30" fill="#1A1A2A" rx="3" ry="3"/>
  <text x="635" y="380" font-family="Arial" font-size="12" fill="#FFFFFF">Amount</text>
  <text x="735" y="380" font-family="Arial" font-size="12" fill="#FFFFFF" text-anchor="end">0.5 BTC</text>
  
  <rect x="625" y="395" width="65" height="35" fill="#4CAF50" rx="3" ry="3"/>
  <text x="645" y="417" font-family="Arial" font-size="14" fill="#FFFFFF" font-weight="bold">BUY</text>
  
  <rect x="700" y="395" width="65" height="35" fill="#E57373" rx="3" ry="3"/>
  <text x="715" y="417" font-family="Arial" font-size="14" fill="#FFFFFF" font-weight="bold">SELL</text>
  
  <rect x="625" y="435" width="140" height="30" fill="#1A1A2A" rx="3" ry="3"/>
  <text x="635" y="455" font-family="Arial" font-size="12" fill="#FFFFFF">Market Price</text>
  <text x="735" y="455" font-family="Arial" font-size="12" fill="#FFFFFF" text-anchor="end">$42,156.78</text>
</svg>
